{
  "accessors": [
    {
      "bufferView": 1,
      "componentType": 5126,
      "count": 9024,
      "max": [
        2.2590301036834717,
        1.9553300142288208,
        2.453049898147583
      ],
      "min": [
        -1.0,
        -1.9553300142288208,
        0.0008500000112690032
      ],
      "type": "VEC3"
    },
    {
      "bufferView": 1,
      "byteOffset": 108288,
      "componentType": 5126,
      "count": 9024,
      "max": [
        0.9970542788505554,
        0.9990413188934326,
        0.9993064403533936
      ],
      "min": [
        -0.9987255930900574,
        -0.997266411781311,
        -0.9993064403533936
      ],
      "type": "VEC3"
    },
    {
      "bufferView": 1,
      "byteOffset": 216576,
      "componentType": 5126,
      "count": 9024,
      "max": [
        0.8627451062202454,
        0.43921568989753723,
        0.5882353186607361
      ],
      "min": [
        0.239215686917305,
        0.14509804546833038,
        0.10196078568696976
      ],
      "type": "VEC3"
    },
    {
      "bufferView": 0,
      "componentType": 5125,
      "count": 9216,
      "type": "SCALAR"
    }
  ],
  "asset": {
    "extras": {
      "author": "Mesh-Base (https://sketchfab.com/mesh-base)",
      "license": "CC-BY-4.0 (http://creativecommons.org/licenses/by/4.0/)",
      "source": "https://sketchfab.com/3d-models/low-poly-spider-7d3ab592920e4e98b71df547a8666091",
      "title": "Low-Poly Spider"
    },
    "generator": "Sketchfab-12.65.0",
    "version": "2.0"
  },
  "bufferViews": [
    {
      "buffer": 0,
      "byteLength": 36864,
      "name": "floatBufferViews",
      "target": 34963
    },
    {
      "buffer": 0,
      "byteLength": 324864,
      "byteOffset": 36864,
      "byteStride": 12,
      "name": "floatBufferViews",
      "target": 34962
    }
  ],
  "buffers": [
    {
      "byteLength": 361728,
      "uri": "scene.bin"
    }
  ],
  "materials": [
    {
      "doubleSided": true,
      "name": "Material",
      "pbrMetallicRoughness": {
        "baseColorFactor": [
          0.800000011920929,
          0.800000011920929,
          0.800000011920929,
          1.0
        ],
        "metallicFactor": 0.2990677554647243,
        "roughnessFactor": 0.6207438701028083
      }
    }
  ],
  "meshes": [
    {
      "name": "Icosphere_0",
      "primitives": [
        {
          "attributes": {
            "COLOR_0": 2,
            "NORMAL": 1,
            "POSITION": 0
          },
          "indices": 3,
          "material": 0,
          "mode": 4
        }
      ]
    }
  ],
  "nodes": [
    {
      "children": [
        1
      ],
      "matrix": [
        1.0,
        0.0,
        0.0,
        0.0,
        0.0,
        2.220446049250313e-16,
        -1.0,
        0.0,
        0.0,
        1.0,
        2.220446049250313e-16,
        0.0,
        0.0,
        0.0,
        0.0,
        1.0
      ],
      "name": "Sketchfab_model"
    },
    {
      "children": [
        2,
        4
      ],
      "name": "Root"
    },
    {
      "children": [
        3
      ],
      "matrix": [
        -0.29086000000000006,
        0.9551700000000001,
        -0.05519000000000001,
        0.0,
        -0.7711,
        -0.19988000000000003,
        0.6045200000000001,
        0.0,
        0.5663900000000001,
        0.21839000000000003,
        0.7946700000000001,
        0.0,
        4.076250000000001,
        1.00545,
        5.903860000000001,
        1.0
      ],
      "name": "Lamp"
    },
    {
      "name": "Lamp"
    },
    {
      "children": [
        5
      ],
      "matrix": [
        1.3032899999999998,
        0.0,
        0.0,
        0.0,
        0.0,
        1.0532899999999998,
        0.0,
        0.0,
        0.0,
        0.0,
        1.0,
        0.0,
        -1.0,
        0.0,
        0.0,
        1.0
      ],
      "name": "Icosphere"
    },
    {
      "mesh": 0,
      "name": "Icosphere_0"
    }
  ],
  "scene": 0,
  "scenes": [
    {
      "name": "Sketchfab_Scene",
      "nodes": [
        0
      ]
    }
  ]
}
